<svg width="250" height="150" viewBox="0 0 250 150" fill="none" xmlns="http://www.w3.org/2000/svg">
<g filter="url(#filter0_d_5_2)">
<path d="M49.5938 72.2891L56.7656 78.793L53.2676 82.6953L42.4219 72.5L53.0215 61.4785L56.8008 65.0469L49.5938 72.2891ZM189.182 65.0469L192.961 61.4785L203.561 72.5L192.715 82.6953L189.217 78.793L196.389 72.2891L189.182 65.0469Z" fill="#58A4B0"/>
<path d="M64.7637 86H59.5781L70.0195 60.793H75.2051L64.7637 86ZM95.8418 86H78.5625V60.793H95.8418V65.8379H83.6074V70.8828H91.8867V75.9277H83.6074V80.9551H95.8418V86ZM117.375 86H97.8633L108.621 65.8379H97.8633V60.793H117.375L106.652 80.9551H117.375V86ZM125.654 62.0586C125.654 62.5039 125.566 62.9199 125.391 63.3066C125.227 63.6934 124.998 64.0332 124.705 64.3262C124.412 64.6074 124.066 64.8359 123.668 65.0117C123.281 65.1758 122.865 65.2578 122.42 65.2578C121.975 65.2578 121.553 65.1758 121.154 65.0117C120.768 64.8359 120.428 64.6074 120.135 64.3262C119.854 64.0332 119.625 63.6934 119.449 63.3066C119.285 62.9199 119.203 62.5039 119.203 62.0586C119.203 61.625 119.285 61.2148 119.449 60.8281C119.625 60.4297 119.854 60.0898 120.135 59.8086C120.428 59.5156 120.768 59.2871 121.154 59.123C121.553 58.9473 121.975 58.8594 122.42 58.8594C122.865 58.8594 123.281 58.9473 123.668 59.123C124.066 59.2871 124.412 59.5156 124.705 59.8086C124.998 60.0898 125.227 60.4297 125.391 60.8281C125.566 61.2148 125.654 61.625 125.654 62.0586ZM124.828 86H119.994V67.1738H124.828V86ZM133.846 86L126.674 67.1738H132.141L136.254 78.916L140.35 67.1738H145.834L138.662 86H133.846ZM165.328 86H164.168L162.305 83.416C161.848 83.8262 161.361 84.2129 160.846 84.5762C160.342 84.9277 159.809 85.2383 159.246 85.5078C158.684 85.7656 158.104 85.9707 157.506 86.123C156.92 86.2754 156.322 86.3516 155.713 86.3516C154.389 86.3516 153.141 86.1289 151.969 85.6836C150.809 85.2383 149.789 84.5938 148.91 83.75C148.043 82.8945 147.357 81.8516 146.854 80.6211C146.35 79.3906 146.098 77.9902 146.098 76.4199C146.098 74.9551 146.35 73.6133 146.854 72.3945C147.357 71.1641 148.043 70.1094 148.91 69.2305C149.789 68.3516 150.809 67.6719 151.969 67.1914C153.141 66.6992 154.389 66.4531 155.713 66.4531C156.322 66.4531 156.926 66.5293 157.523 66.6816C158.121 66.834 158.701 67.0449 159.264 67.3145C159.826 67.584 160.359 67.9004 160.863 68.2637C161.379 68.627 161.859 69.0195 162.305 69.4414L164.168 67.209H165.328V86ZM160.494 76.4199C160.494 75.7637 160.365 75.1309 160.107 74.5215C159.861 73.9004 159.521 73.3555 159.088 72.8867C158.654 72.4062 158.145 72.0254 157.559 71.7441C156.984 71.4512 156.369 71.3047 155.713 71.3047C155.057 71.3047 154.436 71.416 153.85 71.6387C153.275 71.8613 152.771 72.1895 152.338 72.623C151.916 73.0566 151.582 73.5957 151.336 74.2402C151.09 74.873 150.967 75.5996 150.967 76.4199C150.967 77.2402 151.09 77.9727 151.336 78.6172C151.582 79.25 151.916 79.7832 152.338 80.2168C152.771 80.6504 153.275 80.9785 153.85 81.2012C154.436 81.4238 155.057 81.5352 155.713 81.5352C156.369 81.5352 156.984 81.3945 157.559 81.1133C158.145 80.8203 158.654 80.4395 159.088 79.9707C159.521 79.4902 159.861 78.9453 160.107 78.3359C160.365 77.7148 160.494 77.0762 160.494 76.4199ZM173.801 86H169.002V67.1738H170.162L171.744 69.002C172.518 68.2988 173.391 67.7598 174.363 67.3848C175.348 66.998 176.373 66.8047 177.439 66.8047C178.588 66.8047 179.672 67.0273 180.691 67.4727C181.711 67.9062 182.602 68.5098 183.363 69.2832C184.125 70.0449 184.723 70.9414 185.156 71.9727C185.602 72.9922 185.824 74.082 185.824 75.2422V86H181.025V75.2422C181.025 74.75 180.932 74.2871 180.744 73.8535C180.557 73.4082 180.299 73.0215 179.971 72.6934C179.643 72.3652 179.262 72.1074 178.828 71.9199C178.395 71.7324 177.932 71.6387 177.439 71.6387C176.936 71.6387 176.461 71.7324 176.016 71.9199C175.57 72.1074 175.184 72.3652 174.855 72.6934C174.527 73.0215 174.27 73.4082 174.082 73.8535C173.895 74.2871 173.801 74.75 173.801 75.2422V86Z" fill="#E7F6F2"/>
</g>
<defs>
<filter id="filter0_d_5_2" x="39.4219" y="57.8594" width="169.139" height="35.4922" filterUnits="userSpaceOnUse" color-interpolation-filters="sRGB">
<feFlood flood-opacity="0" result="BackgroundImageFix"/>
<feColorMatrix in="SourceAlpha" type="matrix" values="0 0 0 0 0 0 0 0 0 0 0 0 0 0 0 0 0 0 127 0" result="hardAlpha"/>
<feOffset dx="1" dy="3"/>
<feGaussianBlur stdDeviation="2"/>
<feComposite in2="hardAlpha" operator="out"/>
<feColorMatrix type="matrix" values="0 0 0 0 0.345098 0 0 0 0 0.643137 0 0 0 0 0.690196 0 0 0 0.25 0"/>
<feBlend mode="normal" in2="BackgroundImageFix" result="effect1_dropShadow_5_2"/>
<feBlend mode="normal" in="SourceGraphic" in2="effect1_dropShadow_5_2" result="shape"/>
</filter>
</defs>
</svg>
